<?xml version="1.0" standalone="no"?>
<!DOCTYPE svg PUBLIC "-//W3C//DTD SVG 20010904//EN"
 "http://www.w3.org/TR/2001/REC-SVG-20010904/DTD/svg10.dtd">
<svg version="1.0" xmlns="http://www.w3.org/2000/svg"
 width="900.000000pt" height="400.000000pt" viewBox="0 0 458.000000 343.000000"
 preserveAspectRatio="xMidYMid meet">

<g transform="translate(0.000000,343.000000) scale(0.100000,-0.100000)"
fill="#000000" stroke="none">
<path d="M2170 2780 c-241 -26 -450 -128 -626 -304 -164 -165 -258 -347 -295
-571 -24 -146 -10 -352 33 -480 13 -39 15 -40 62 -43 43 -3 48 -1 41 15 -29
73 -55 215 -57 311 -2 129 6 190 39 302 94 317 346 562 668 651 112 30 310 37
425 14 264 -53 502 -216 635 -435 97 -159 145 -330 145 -514 0 -78 -24 -219
-49 -292 l-19 -54 48 0 c54 0 55 1 86 125 25 100 26 352 1 455 -50 209 -139
370 -290 522 -218 220 -535 332 -847 298z"/>
<path d="M2026 2145 c-3 -9 -1 -23 5 -33 8 -13 4 -36 -13 -90 l-23 -74 -50 -2
c-123 -4 -178 -139 -89 -222 19 -18 46 -34 61 -36 23 -2 29 -10 38 -48 23 -89
70 -160 147 -220 48 -39 88 -52 88 -29 0 12 108 187 120 194 4 2 28 -4 53 -13
l46 -18 -55 -87 c-30 -48 -50 -87 -45 -87 4 0 32 39 61 86 45 71 57 84 74 80
12 -3 36 -6 54 -6 17 0 32 -4 32 -10 0 -5 -20 -41 -45 -80 -25 -38 -42 -70
-37 -70 4 0 32 38 61 85 68 106 85 112 60 22 -5 -21 -24 -53 -41 -72 -33 -38
-28 -48 8 -14 21 20 23 20 48 4 14 -10 26 -13 26 -8 0 5 -11 15 -24 22 -23 13
-23 15 -10 47 8 18 14 47 14 64 0 22 9 39 34 61 43 37 71 114 61 167 -10 52
-27 81 -76 129 -24 23 -55 56 -68 73 -66 87 -213 79 -305 -16 -30 -31 -52 -42
-104 -55 l-65 -16 -24 26 -23 26 60 57 c33 32 66 55 72 53 21 -8 40 11 36 36
-4 33 -52 35 -56 2 -2 -12 -29 -43 -60 -70 -31 -26 -54 -41 -50 -33 3 8 13 40
23 70 10 30 25 60 33 66 8 6 13 19 11 30 -5 25 -54 32 -63 9z m44 -15 c0 -5
-4 -10 -10 -10 -5 0 -10 5 -10 10 0 6 5 10 10 10 6 0 10 -4 10 -10z m110 -71
c0 -5 -7 -9 -15 -9 -15 0 -20 12 -9 23 8 8 24 -1 24 -14z m338 -102 l37 -37
-48 0 c-47 0 -95 -18 -129 -47 -15 -14 -25 -13 -89 4 l-71 19 33 34 c51 51
104 71 172 67 51 -3 62 -8 95 -40z m-523 -41 c18 -8 38 -24 45 -35 9 -18 6
-25 -25 -52 -20 -18 -42 -51 -52 -80 -12 -33 -23 -49 -35 -49 -29 0 -87 58
-94 95 -8 45 19 99 59 119 40 19 59 20 102 2z m607 -48 c50 -38 71 -88 66
-155 -8 -93 -72 -153 -164 -153 -53 0 -184 39 -257 77 l-39 19 60 75 c60 75
107 122 152 153 39 27 137 18 182 -16z m-443 -35 c-85 -139 -156 -246 -164
-245 -25 2 -32 116 -11 165 25 60 104 116 164 117 l34 0 -23 -37z m154 18 l29
-11 -51 -56 c-28 -30 -90 -114 -137 -185 -92 -139 -94 -141 -129 -76 l-18 33
99 158 99 158 40 -5 c22 -3 53 -10 68 -16z m-63 -237 c22 -9 40 -18 40 -20 0
-9 -123 -194 -129 -194 -3 0 -23 11 -44 25 l-37 26 48 77 c27 42 52 83 56 90
9 16 17 15 66 -4z"/>
<path d="M1915 1880 c-4 -6 -3 -16 3 -22 6 -6 12 -6 17 2 4 6 3 16 -3 22 -6 6
-12 6 -17 -2z"/>
<path d="M2600 1445 c0 -6 62 -45 73 -45 16 0 5 17 -22 33 -29 17 -51 22 -51
12z"/>
<path d="M2708 1383 c7 -3 16 -2 19 1 4 3 -2 6 -13 5 -11 0 -14 -3 -6 -6z"/>
<path d="M677 1033 c-16 -4 -17 -18 -15 -146 l3 -142 110 -3 c95 -2 114 0 142
18 40 24 51 61 29 95 -9 14 -23 25 -31 25 -22 0 -18 18 4 25 44 14 32 98 -16
123 -19 10 -195 14 -226 5z m202 -67 c6 -7 9 -21 5 -30 -5 -13 -21 -16 -80
-16 l-74 0 0 30 0 30 69 0 c46 0 72 -5 80 -14z m6 -120 c16 -12 17 -16 6 -30
-10 -12 -32 -16 -87 -16 l-74 0 0 30 0 30 68 0 c42 0 75 -5 87 -14z"/>
<path d="M2143 1025 c-40 -17 -58 -52 -49 -98 8 -44 52 -67 128 -67 61 0 81
-10 76 -36 -3 -17 -13 -19 -106 -18 l-102 0 0 -27 c0 -22 6 -28 31 -33 61 -12
169 -7 202 10 41 21 47 31 47 75 0 52 -25 69 -122 83 -73 11 -83 15 -86 34 -4
29 29 36 124 29 l74 -5 0 28 c0 23 -5 29 -31 34 -54 10 -153 6 -186 -9z"/>
<path d="M2763 1033 c-8 -3 -13 -25 -13 -59 l0 -54 -85 0 -85 0 0 55 0 55 -35
0 -35 0 0 -145 0 -145 35 0 35 0 0 60 0 61 83 -3 82 -3 3 -57 c3 -57 4 -58 33
-58 l30 0 -3 147 c-3 153 -6 163 -45 146z"/>
<path d="M3198 1034 c-16 -5 -18 -20 -18 -134 0 -71 -3 -135 -6 -144 -5 -13 1
-16 30 -16 l36 0 0 50 0 50 53 0 c52 0 52 -1 82 -50 25 -44 33 -50 62 -50 40
0 41 9 8 58 -31 45 -31 49 -2 72 32 26 32 110 -1 142 -20 21 -33 23 -125 25
-56 1 -110 -1 -119 -3z m196 -76 c8 -13 8 -23 0 -35 -9 -14 -25 -18 -80 -18
-65 0 -69 1 -72 23 -7 47 3 53 74 50 51 -2 70 -7 78 -20z"/>
<path d="M3643 1033 c-48 -4 -53 -6 -53 -29 0 -23 3 -24 55 -24 l55 0 0 -120
0 -120 35 0 34 0 3 118 3 117 58 3 c53 3 57 5 57 27 0 24 -2 25 -77 25 -43 0
-87 2 -98 3 -11 2 -44 2 -72 0z"/>
<path d="M1090 885 l0 -145 140 0 140 0 0 30 0 29 -102 3 c-102 3 -103 3 -103
28 0 24 2 25 78 28 l77 3 0 29 0 30 -81 0 -80 0 3 28 3 27 103 3 c101 3 102 3
102 27 l0 25 -140 0 -140 0 0 -145z"/>
<path d="M1500 885 l0 -145 140 0 140 0 0 30 0 29 -102 3 c-102 3 -103 3 -103
28 0 24 2 25 78 28 l77 3 0 29 0 30 -81 0 -80 0 3 28 3 27 103 3 c101 3 102 3
102 27 l0 25 -140 0 -140 0 0 -145z"/>
<path d="M2970 884 l0 -145 33 3 32 3 3 143 3 142 -36 0 -35 0 0 -146z"/>
</g>
</svg>
