<svg xmlns="http://www.w3.org/2000/svg" width="176.459" height="162.838" viewBox="0 0 176.459 162.838">
  <g id="Group_12" data-name="Group 12" transform="translate(-69.77 -600)">
    <g id="Group_1" data-name="Group 1" transform="translate(-754.774 69.042)">
      <rect id="Rectangle_4" data-name="Rectangle 4" width="31.194" height="31.194" transform="translate(868.659 553.016) rotate(45)" fill="#007ae1" opacity="0.6"/>
      <path id="Rectangle_11" data-name="Rectangle 11" d="M0,0H31.194V31.194H4a4,4,0,0,1-4-4Z" transform="translate(846.602 575.073) rotate(45)" fill="#007ae1" opacity="0.8"/>
      <rect id="Rectangle_7" data-name="Rectangle 7" width="31.194" height="31.194" transform="translate(912.774 553.016) rotate(45)" fill="#007ae1" opacity="0.6"/>
      <rect id="Rectangle_9" data-name="Rectangle 9" width="31.194" height="31.194" transform="translate(890.716 575.073) rotate(45)" fill="#007ae1" opacity="0.8"/>
      <path id="Rectangle_13" data-name="Rectangle 13" d="M0,0H31.194V27.194a4,4,0,0,1-4,4H0Z" transform="translate(912.774 597.131) rotate(45)" fill="#007ae1"/>
      <path id="Rectangle_14" data-name="Rectangle 14" d="M0,0H31.194V27.194a4,4,0,0,1-4,4H0Z" transform="translate(868.659 597.131) rotate(45)" fill="#007ae1"/>
      <path id="Rectangle_15" data-name="Rectangle 15" d="M0,0H31.194V27.194a4,4,0,0,1-4,4H0Z" transform="translate(956.889 597.131) rotate(45)" fill="#007ae1"/>
      <rect id="Rectangle_10" data-name="Rectangle 10" width="31.194" height="31.194" transform="translate(934.831 575.073) rotate(45)" fill="#007ae1" opacity="0.8"/>
      <path id="Rectangle_12" data-name="Rectangle 12" d="M0,0H27.194a4,4,0,0,1,4,4V31.194H0Z" transform="translate(978.946 575.073) rotate(45)" fill="#007ae1" opacity="0.8"/>
      <rect id="Rectangle_8" data-name="Rectangle 8" width="31.194" height="31.194" transform="translate(956.889 553.016) rotate(45)" fill="#007ae1" opacity="0.6"/>
      <path id="Rectangle_5" data-name="Rectangle 5" d="M3,0H31.194V31.194H0V3A3,3,0,0,1,3,0Z" transform="translate(890.716 530.958) rotate(45)" fill="#007ae1" opacity="0.4"/>
      <path id="Rectangle_6" data-name="Rectangle 6" d="M3,0H31.194V31.194H0V3A3,3,0,0,1,3,0Z" transform="translate(934.831 530.958) rotate(45)" fill="#007ae1" opacity="0.4"/>
    </g>
    <path id="Path_226" data-name="Path 226" d="M-94.856-31.077V-57.861h-7.849v34.338h20.112v-7.554Zm38.508,7.554h8.585L-59.439-57.861H-69.446L-81.121-23.523h8.585l1.717-5.4h12.754ZM-68.465-36.277l4.022-12.607,4.022,12.607Zm36.644-21.584h-13v34.338h7.849V-34.315h5.151A11.8,11.8,0,0,0-19.8-46.088,11.8,11.8,0,0,0-31.821-57.861Zm0,16.188h-5.151V-50.5h5.151a4.2,4.2,0,0,1,4.17,4.415A4.2,4.2,0,0,1-31.821-41.673Zm15.943-16.188v34.338h7.849V-57.861ZM9.385-22.836c7.456,0,12.754-3.924,12.754-10.547,0-7.26-5.837-9.075-11.037-10.645-5.347-1.619-6.181-2.7-6.181-4.268,0-1.374,1.226-2.6,3.679-2.6,3.139,0,4.758,1.521,5.936,3.973L21.158-50.8A13.319,13.319,0,0,0,8.6-58.548c-5.936,0-11.528,3.826-11.528,10.449,0,6.573,5,9.026,10.105,10.449,5.151,1.423,7.113,2.257,7.113,4.366,0,1.324-.932,2.8-4.66,2.8a7.192,7.192,0,0,1-7.211-4.758l-6.77,3.924C-2.437-26.27,2.174-22.836,9.385-22.836Z" transform="translate(198.283 785.674)" fill="#0c0d0d"/>
  </g>
</svg>
